<svg xmlns="http://www.w3.org/2000/svg" viewBox="0 0 351.57 305.23"><title>Fichier 1</title><g id="Calque_2" data-name="Calque 2"><g id="Calque_1-2" data-name="Calque 1"><polygon points="234.63 305.23 234.2 304.48 190.27 228.43 145.95 305.2 43.28 127.38 73.57 127.38 73.71 127.63 146.16 253.1 175.48 202.3 176.35 202.8 146.16 255.1 72.99 128.38 45.02 128.38 145.95 303.2 190.27 226.43 190.71 227.18 234.63 303.23 350.41 102.67 336.62 78.8 234.84 255.13 204.27 202.19 204.41 201.94 247.15 127.9 233.57 103.7 190.47 178.32 161.66 128.41 132.82 128.41 132.82 127.41 162.23 127.41 190.47 176.32 233.58 101.67 248.3 127.91 248.16 128.16 205.42 202.19 234.84 253.13 336.62 76.8 351.57 102.67 351.42 102.92 234.63 305.23"/><path d="M118.23,103.65l-30.62-53h30.27L133.6,77.79Zm-28.89-52,28.9,50.06,14.2-23.89L117.3,51.61Z"/><path d="M276.92,78.3l-29.87,0,.43-.75L292.28,0,307.2,25.86Zm-28.13-1,27.56,0L306,25.86,292.28,2Z"/><path d="M146.82,304.7H117l-.14-.25L0,102.16l88.67,0L44.32,25.37H249.66L234.52,51.61H89.34l29.18,50.55h86.81L190.2,128.38l-56.5,0L177,202.67H146.7l-42.91-74.3H45Zm-29.29-1h27.56L43.28,127.38h61.09l42.91,74.3h28L132,127.41l57.66,0,14-24.22H117.95L87.61,50.61H233.94l14-24.23H46.05L90.4,103.19l-88.67,0Z"/><path d="M235.5,304.73H205.63L175.33,252.3l14.94-25.87.43.75Zm-29.3-1h27.57l-43.5-75.3L176.49,252.3Z"/><path d="M278.87,128.41H247.43l-14.69-26.25,61.26,0Zm-30.85-1h30.28l14-24.22-57.82,0Z"/><path d="M234.82,255.1l-15.17-26.22.14-.25,72.46-125.47H233.88l-43.41,75.16-15.14-26.21,28.22-48.95h-86.2l15.38-25.87h85.79l29.4-50.91H44.32L59.24.52l233.9,0L248.79,77.28l88.68,0L337,78Zm-14-26.22,14,24.22L335.74,78.26l-88.68,0L291.41,1.5l-231.59,0L46,25.37H249.66L219.11,78.28h-85.8l-14.19,23.87h86.17l-28.8,49.95,14,24.21,42.83-74.16H294l-.43.75Z"/><path d="M90.4,103.19l-90.4,0L14.93,77.29H75.44Zm-88.67-1,86.93,0L74.86,78.28H15.5Z"/><path d="M146.16,255.1,131,228.88l15.7-27.21H177Zm-14-26.22,14,24.22,29.11-50.43h-28Z"/></g></g></svg>