<?xml version="1.0" encoding="utf-8"?>
<!-- Generator: Adobe Illustrator 20.0.0, SVG Export Plug-In . SVG Version: 6.00 Build 0)  -->
<svg version="1.1" id="Calque_1" xmlns="http://www.w3.org/2000/svg" xmlns:xlink="http://www.w3.org/1999/xlink" x="0px" y="0px"
	 viewBox="0 0 33.5 69.9" style="enable-background:new 0 0 33.5 69.9;" xml:space="preserve">
<path d="M5.9,1.6v1.6H3.6l1.8,12.6h0.1l3.2-9l3.2,9H12l1.8-12.6h-2.3V1.6h5.3v1.6h-1.2l-2.3,16.1h-1.7l-2.8-7.6l-2.8,7.6H4.2
	L1.9,3.2H0.6V1.6H5.9z"/>
<path d="M18.6,19v-1.6h2.9V3.2h-2.9V1.6h13.8v5h-1.8V5.9c0-2.4-0.1-2.7-2.4-2.7h-4.9v5.5h4V6.3h1.8v6.8h-1.8v-2.7h-4v7h5.4
	c2.2,0,2.4-0.3,2.4-3.5v-0.6h1.8V19H18.6z"/>
<path d="M3.6,28.3l-2.3-0.5l0.1-1.4c0.9,0.1,1.8,0.3,2.8,0.3c1.1,0,2.2-0.3,3.6-0.3c4.2,0,7.7,2.7,7.7,8.8c0,6.4-3.2,8.6-7.1,8.6
	c-1.3,0-2.6-0.3-3.9-0.1l-3,0.3l-0.3-1.6l2.4-0.2V28.3z M5.4,42.2h2.9c3.1,0,5.3-1.7,5.3-6.6c0-5.8-3.5-7.8-6.1-7.5l-2.1,0.2V42.2z"
	/>
<path d="M31.6,26.4V28H27v14.2h4.6v1.6H20.6v-1.6h4.6V28h-4.6v-1.6H31.6z"/>
<path d="M9.5,51.2v1.6H6.2V67h4.6c3.2,0,3.1-0.6,3.1-3.7v-0.8h1.8v6.1H1.3V67h3.1V52.8H1.3v-1.6H9.5z"/>
<path d="M31.6,51.2v1.6H27V67h4.6v1.6H20.6V67h4.6V52.8h-4.6v-1.6H31.6z"/>
</svg>
